<svg xmlns="http://www.w3.org/2000/svg" viewBox="0 0 792 154"><path d="M451.3 77.8c0-6.8 2.3-12.3 6.8-16.6s10.2-6.4 17-6.4c8.3 0 14.5 3.6 18.5 10.8l-8.1 4c-1-1.9-2.4-3.4-4.3-4.7-1.9-1.2-3.9-1.8-6.1-1.8-4 0-7.4 1.4-10 4.1-2.7 2.8-4 6.3-4 10.5 0 4.3 1.3 7.8 4 10.6s6 4.2 10.1 4.2c2.2 0 4.2-.6 6.1-1.9 1.9-1.2 3.3-2.8 4.3-4.7l8.1 4c-4.1 7.3-10.3 10.9-18.5 10.9-6.8 0-12.5-2.2-17-6.5-4.6-4.2-6.9-9.8-6.9-16.5zM507 94.4c-4.4-4.3-6.6-9.8-6.6-16.6 0-6.7 2.2-12.3 6.6-16.6s9.9-6.4 16.7-6.4c6.7 0 12.3 2.2 16.7 6.5s6.6 9.8 6.6 16.5-2.2 12.2-6.6 16.6c-4.4 4.3-9.9 6.5-16.7 6.5-6.7-.1-12.3-2.2-16.7-6.5zm6.9-27.2c-2.5 2.8-3.7 6.3-3.7 10.5 0 4.3 1.2 7.8 3.7 10.6s5.8 4.2 9.8 4.2c4.1 0 7.3-1.4 9.8-4.2 2.5-2.8 3.7-6.3 3.7-10.6s-1.2-7.8-3.7-10.5c-2.5-2.8-5.7-4.1-9.8-4.1-4 0-7.3 1.4-9.8 4.1zM557 100V55.5h9.7l20.6 28v-28h9.5V100h-9.2l-21.2-29v29H557zm51.9 0V55.5h9.7l20.6 28v-28h9.5V100h-9.2l-21.2-29v29h-9.4zm52 0V55.5h31.5v8.3h-22v9.4h21.5v8.3h-21.5v10.1h22v8.3l-31.5.1zM701 77.8c0-6.8 2.3-12.3 6.8-16.6s10.2-6.4 17-6.4c8.3 0 14.5 3.6 18.5 10.8l-8.1 4c-1-1.9-2.4-3.4-4.3-4.7-1.9-1.2-3.9-1.8-6.1-1.8-4 0-7.4 1.4-10 4.1-2.7 2.8-4 6.3-4 10.5 0 4.3 1.3 7.8 4 10.6s6 4.2 10.1 4.2c2.2 0 4.2-.6 6.1-1.9 1.9-1.2 3.3-2.8 4.3-4.7l8.1 4c-4.1 7.3-10.3 10.9-18.5 10.9-6.8 0-12.5-2.2-17-6.5-4.7-4.2-6.9-9.8-6.9-16.5zm48.5-13.9v-8.3H785v8.3h-13V100h-9.5V63.9h-13zM52.3 56.5c3.8-2.2 7.8-3.3 12.2-3.3 3.3 0 6.5.7 9.5 1.9 3 1.3 5.8 3.1 8.1 5.3l2.4 2.3 23.4-23.4-2.4-2.4c-5.4-5.4-11.6-9.6-18.6-12.5-7-3-14.5-4.5-22.3-4.5-10.4 0-20.2 2.6-29 7.8s-15.9 12.2-21 21.1c-5.2 8.9-7.8 18.6-7.8 29s2.6 20.2 7.8 29c5.1 8.8 12.2 15.9 21 21 8.8 5.2 18.6 7.8 29 7.8 7.8 0 15.4-1.5 22.3-4.5 7-2.9 13.2-7.2 18.6-12.5l2.4-2.4-23.4-23.3-2.4 2.3c-2.3 2.2-5.1 4-8.1 5.3s-6.2 1.9-9.5 1.9c-4.5 0-8.5-1.1-12.2-3.3-3.7-2.2-6.8-5.3-9-9-2.2-3.8-3.3-7.8-3.3-12.2 0-4.5 1.1-8.5 3.3-12.3 2.3-3.8 5.3-6.9 9-9.1zm-14.9 5.6c-2.8 4.8-4.3 10.1-4.3 15.8 0 5.7 1.4 11 4.3 15.8 2.8 4.7 6.6 8.6 11.4 11.4s10.1 4.3 15.8 4.3c4.2 0 8.3-.8 12.1-2.5 2.8-1.2 5.3-2.7 7.6-4.5l13.8 13.8c-4.1 3.6-8.8 6.6-13.9 8.7-6.1 2.6-12.8 3.9-19.7 3.9-9.2 0-17.8-2.3-25.5-6.8-7.8-4.5-14-10.8-18.6-18.6-4.5-7.7-6.8-16.3-6.8-25.5s2.3-17.8 6.8-25.6S31.2 38.2 39 33.7c7.7-4.5 16.3-6.8 25.5-6.8 6.9 0 13.5 1.3 19.7 3.9 5.1 2.2 9.8 5.1 13.9 8.7L84.3 53.3c-2.3-1.8-4.9-3.3-7.6-4.5-3.9-1.6-8-2.5-12.1-2.5-5.7 0-11 1.4-15.8 4.3-4.7 2.9-8.6 6.7-11.4 11.5zM183 48.3c-3.2-2.5-7.1-3.8-11.7-3.8h-25.4v30h25.4c4.7 0 8.6-1.3 11.8-3.8 3.3-2.7 5.1-6.5 5.1-11.2-.1-4.7-1.8-8.5-5.2-11.2zm-4.2 16.9c-1.9 1.6-4.3 2.3-7.5 2.3h-18.6V51.3h18.6c3.1 0 5.5.8 7.4 2.3 1.7 1.4 2.5 3.2 2.5 5.8.1 2.6-.7 4.4-2.4 5.8zm30.5 17.5c4.7-6 7-13.8 7-23.1 0-11.2-3.7-20.7-11-28.1s-17.4-11.2-29.9-11.2h-57.3v114.5h34.6V98.6h8.6l18.1 36.2h39.7l-22.9-41.3c5.1-2.5 9.4-6.1 13.1-10.8zm-1.7 45.2h-23.8l-18.1-36.2H146v36.2h-21V27.1h50.5c10.8 0 18.9 3 25 9.1 6.1 6.2 9 13.8 9 23.3 0 7.8-1.9 14.2-5.6 18.9-3.8 4.9-8.3 8.2-13.6 10.1l-3.8 1.3 21.1 38.1zm80.6-43.6c0 5.5-1.3 9.9-4.1 13.5-2.5 3.3-5.7 5-9.7 5H272c-4.2 0-7.3-1.5-9.7-4.8-2.6-3.5-3.9-8.1-3.9-13.7V20.5h-32.3v69.9c0 8.3 2.1 16 6.2 23S242 126 249 130.1s14.7 6.2 23 6.2h2.4c8.3 0 16.1-2.1 23.1-6.2s12.7-9.7 16.8-16.7c4.1-7 6.2-14.7 6.2-23V20.5h-32.3v63.8zm6.8 0v-57h18.6v63.1c0 7.1-1.8 13.6-5.2 19.6-3.5 5.9-8.3 10.7-14.3 14.2s-12.6 5.2-19.7 5.2H272c-7.1 0-13.6-1.8-19.6-5.2-6-3.5-10.7-8.3-14.2-14.2-3.5-5.9-5.2-12.5-5.2-19.6V27.3h18.6v57c0 7 1.8 13 5.2 17.7 3.7 5.1 8.8 7.6 15.2 7.6h2.4c6.2 0 11.3-2.6 15.1-7.7 3.7-4.7 5.5-10.7 5.5-17.6zm62.9-57.1l64.7 107.5h31.5L419.2 77l34.3-56.6h-39.8l-14.3 23.7-10.7-17.8c2.3-1.9 3.8-4.8 3.8-8 0-5.7-4.7-10.4-10.4-10.4s-10.4 4.7-10.4 10.4 4.7 10.4 10.4 10.4l17.3 28.6 18.2-30.1h23.7L411.2 77l30.8 50.8h-15.4L361.8 20.3l-31.8.1 3.3 5.2 10.4 16.6L365.4 77l-34.9 57.7h39.8l15.1-24.8 11.1 18.4c-3 1.8-4.9 5.1-4.9 8.8 0 5.7 4.7 10.4 10.4 10.4s10.4-4.7 10.4-10.4c0-5.1-3.8-9.4-8.7-10.2l-18.2-30.2-19 31.2h-23.8L373.4 77l-1.1-1.8-20.8-33.4-9.1-14.6h15.5zm19.8-8.8c0-2.4 1.9-4.3 4.3-4.3s4.3 1.9 4.3 4.3-1.9 4.3-4.3 4.3-4.3-2-4.3-4.3zm24.1 123c-2.4 0-4.3-1.9-4.3-4.3s1.9-4.3 4.3-4.3 4.3 1.9 4.3 4.3-1.9 4.3-4.3 4.3z" fill="#fff"/></svg>